<svg width="13" height="3" viewBox="0 0 13 3" fill="none" xmlns="http://www.w3.org/2000/svg">
<path d="M1.5 3C1.20333 3 0.913319 2.91203 0.666645 2.74721C0.419972 2.58238 0.227713 2.34812 0.114181 2.07403C0.000649929 1.79994 -0.0290551 1.49834 0.0288228 1.20737C0.0867006 0.916394 0.229562 0.649119 0.439341 0.43934C0.649119 0.229562 0.916394 0.0867006 1.20737 0.0288228C1.49834 -0.0290551 1.79994 0.000649929 2.07403 0.114181C2.34812 0.227713 2.58238 0.419972 2.74721 0.666645C2.91203 0.913319 3 1.20333 3 1.5C3 1.89783 2.84197 2.27936 2.56066 2.56066C2.27936 2.84197 1.89783 3 1.5 3ZM10 1.5C10 1.79667 10.088 2.08668 10.2528 2.33336C10.4176 2.58003 10.6519 2.77229 10.926 2.88582C11.2001 2.99935 11.5017 3.02906 11.7926 2.97118C12.0836 2.9133 12.3509 2.77044 12.5607 2.56066C12.7704 2.35088 12.9133 2.08361 12.9712 1.79264C13.0291 1.50167 12.9994 1.20006 12.8858 0.925976C12.7723 0.651887 12.58 0.417619 12.3334 0.252797C12.0867 0.0879744 11.7967 8.0917e-07 11.5 8.0917e-07C11.1022 8.0917e-07 10.7206 0.158036 10.4393 0.43934C10.158 0.720645 10 1.10218 10 1.5ZM5 1.5C5 1.79667 5.08797 2.08668 5.2528 2.33336C5.41762 2.58003 5.65189 2.77229 5.92598 2.88582C6.20006 2.99935 6.50166 3.02906 6.79264 2.97118C7.08361 2.9133 7.35088 2.77044 7.56066 2.56066C7.77044 2.35088 7.9133 2.08361 7.97118 1.79264C8.02906 1.50167 7.99935 1.20006 7.88582 0.925976C7.77229 0.651887 7.58003 0.417619 7.33336 0.252797C7.08668 0.0879744 6.79667 8.0917e-07 6.5 8.0917e-07C6.10218 8.0917e-07 5.72064 0.158036 5.43934 0.43934C5.15804 0.720645 5 1.10218 5 1.5Z" fill="#2AA8FF"/>
</svg>
