<svg width="24" height="24" viewBox="0 0 24 24" fill="none" xmlns="http://www.w3.org/2000/svg">
<path d="M15.2039 21.5999C14.9417 22.3011 14.4524 22.9089 13.8037 23.3389C13.155 23.769 12.3791 24 11.5834 24C10.7878 24 10.0119 23.769 9.36322 23.3389C8.71452 22.9089 8.22518 22.3011 7.96301 21.5999H15.2039ZM2.20556 19.1996L17.8142 4.62938C17.3894 3.44801 16.2313 2.80107 14.1378 2.5437C14.1408 2.49682 14.1533 2.44994 14.1533 2.40025C14.1533 2.08504 14.0868 1.77292 13.9576 1.48171C13.8284 1.1905 13.639 0.925899 13.4003 0.703016C13.1615 0.480132 12.8781 0.303332 12.5661 0.182708C12.2542 0.0620843 11.9198 0 11.5822 0C11.2445 0 10.9102 0.0620843 10.5983 0.182708C10.2863 0.303332 10.0029 0.480132 9.76412 0.703016C9.52536 0.925899 9.33598 1.1905 9.20676 1.48171C9.07755 1.77292 9.01105 2.08504 9.01105 2.40025C9.01105 2.44947 9.0236 2.49401 9.02662 2.5437C6.30884 2.87748 5.15434 3.85915 5.15434 5.82904V7.1984C5.15434 12.899 1.81436 15.4263 0.0120517 16.7994C0.0321388 16.8181 0.0120517 19.1996 0.0120517 19.1996H2.20556ZM18.0241 7.5439L24 1.9652L23.1664 1.187L0 22.8131L0.832609 23.5913L5.53699 19.1996H23.1523C23.1523 19.1996 23.1322 16.8181 23.1523 16.7994C21.3877 15.4549 18.1572 12.996 18.0226 7.5439H18.0241Z" fill="#2AA8FF"/>
</svg>
