<svg width="24" height="24" viewBox="0 0 24 24" fill="none" xmlns="http://www.w3.org/2000/svg">
<path fill-rule="evenodd" clip-rule="evenodd" d="M17.6511 0.960871C16.1593 -0.530973 13.6672 -0.246643 12.5498 1.54292L9.43919 6.52454C9.43919 6.52454 9.43756 6.52728 9.43174 6.53146C9.42461 6.53656 9.40939 6.54538 9.38386 6.55257C9.32808 6.56827 9.25521 6.56706 9.19013 6.54294C8.12846 6.14935 6.30607 5.71699 4.41365 6.4298C3.39409 6.81384 2.88532 7.6977 2.82988 8.59443C2.77698 9.45002 3.12253 10.3296 3.75808 10.9651L7.62339 14.8304L0.320216 22.1336C-0.106739 22.5606 -0.106739 23.2528 0.320216 23.6798C0.747166 24.1067 1.4394 24.1067 1.86635 23.6798L9.16953 16.3765L13.0349 20.242C13.6704 20.8775 14.55 21.2231 15.4056 21.1702C16.3023 21.1147 17.1862 20.6059 17.5702 19.5864C18.283 17.6939 17.8506 15.8715 17.4571 14.8098C17.433 14.7448 17.4317 14.672 17.4474 14.6161C17.4546 14.5906 17.4635 14.5754 17.4686 14.5682C17.4727 14.5624 17.4754 14.5609 17.4754 14.5609L22.457 11.4502C24.2466 10.3327 24.531 7.84076 23.0391 6.34892L17.6511 0.960871ZM14.4045 2.70104C14.777 2.10452 15.6077 2.00974 16.1049 2.50702L21.493 7.89506C21.9902 8.39234 21.8955 9.223 21.2989 9.59547L16.3174 12.7061C15.2845 13.3511 15.0546 14.6198 15.4069 15.5699C15.7193 16.4128 15.9686 17.6351 15.524 18.8157C15.4936 18.8962 15.4598 18.9253 15.439 18.9396C15.4126 18.9579 15.3604 18.9822 15.2706 18.9877C15.0766 18.9998 14.7994 18.9142 14.581 18.6958L5.30421 9.41895C5.08584 9.20058 5.00028 8.9234 5.01228 8.72934C5.01782 8.63955 5.04216 8.58745 5.06043 8.56095C5.07472 8.54022 5.10381 8.50638 5.18439 8.47603C6.36495 8.03136 7.58716 8.28068 8.43009 8.59317C9.38022 8.94539 10.6489 8.71551 11.2939 7.68265L14.4045 2.70104Z" fill="#2AA8FF"/>
</svg>
