<svg width="20" height="20" viewBox="0 0 20 20" fill="none" xmlns="http://www.w3.org/2000/svg">
<path d="M7.05214 14.1043C5.08116 14.1043 3.41324 13.4215 2.04838 12.0559C0.683515 10.6903 0.00072387 9.0224 5.74045e-07 7.05214C-0.000722722 5.08188 0.682069 3.41396 2.04838 2.04837C3.41468 0.682792 5.0826 0 7.05214 0C9.02167 0 10.69 0.682792 12.057 2.04837C13.424 3.41396 14.1064 5.08188 14.1043 7.05214C14.1043 7.84776 13.9777 8.59818 13.7245 9.3034C13.4714 10.0086 13.1278 10.6325 12.6938 11.1749L18.7695 17.2506C18.9684 17.4495 19.0679 17.7027 19.0679 18.0101C19.0679 18.3175 18.9684 18.5706 18.7695 18.7695C18.5706 18.9684 18.3175 19.0679 18.0101 19.0679C17.7027 19.0679 17.4495 18.9684 17.2506 18.7695L11.1749 12.6938C10.6325 13.1278 10.0086 13.4714 9.3034 13.7245C8.59818 13.9777 7.84776 14.1043 7.05214 14.1043ZM7.05214 11.9344C8.40832 11.9344 9.56125 11.4599 10.5109 10.5109C11.4606 9.56198 11.9351 8.40904 11.9344 7.05214C11.9337 5.69523 11.4592 4.54266 10.5109 3.59442C9.5627 2.64618 8.40976 2.17134 7.05214 2.16989C5.69451 2.16844 4.54194 2.64329 3.59442 3.59442C2.6469 4.54556 2.17206 5.69813 2.16989 7.05214C2.16772 8.40615 2.64256 9.55908 3.59442 10.5109C4.54628 11.4628 5.69885 11.9373 7.05214 11.9344Z" fill="#2AA8FF"/>
</svg>
